<?xml version="1.0" standalone="no"?>
<!DOCTYPE svg PUBLIC "-//W3C//DTD SVG 20010904//EN"
 "http://www.w3.org/TR/2001/REC-SVG-20010904/DTD/svg10.dtd">
<svg version="1.0" xmlns="http://www.w3.org/2000/svg"
 width="130.000000pt" height="96.000000pt" viewBox="0 0 130.000000 96.000000"
 preserveAspectRatio="xMidYMid meet">

<g transform="translate(0.000000,96.000000) scale(0.100000,-0.100000)"
fill="#000000" stroke="none">
<path d="M809 738 c-5 -16 -6 -39 -2 -35 2 3 13 -3 24 -14 22 -22 47 -16 28 7
-6 7 -14 12 -18 10 -9 -5 -31 21 -24 28 4 3 3 6 0 6 -4 0 -7 -1 -8 -2z"/>
<path d="M789 605 c-3 -5 -6 -32 -6 -58 -1 -32 -7 -55 -18 -68 -24 -26 -14
-34 14 -12 19 16 22 26 19 83 -2 36 -6 61 -9 55z"/>
</g>
</svg>
